# xmcd
# 
# Track frame offsets:
#     183
#     12343
#     28833
#     49045
#     62680
#     76595
#     93440
#     110680
#     131255
#     154593
#     168598
#     189448
#     205880
#     225043
#     242958
#     262790
#     276768
#     296378
# 
# Disc length: 4206
# 
# Revision: 2
# Processed by: cddbd v1.5.2PL0 Copyright (c) Steve Scherf et al.
# Submitted via: fre:ac v1.0.17
# 
DISCID=e3106c12
DTITLE=Various Artist - Gefühle 12 - Die schönsten romantischen Schlager
DYEAR=0
DGENRE=Blues
TTITLE0=Roy Black - Fremde Erde
TTITLE1=Paola - Die kleine Stadt
TTITLE2=Roland Kaiser - Lieb mich ein letztes Mal
TTITLE3=Dalida - Um nicht allein zu sein
TTITLE4=Costa Cordalis - Pan
TTITLE5=Hanne Haller - Weil du ein zärtlicher Mann bist
TTITLE6=Pete "Wyoming" Bender - Ich habe diese Frau geliebt
TTITLE7=Udo Jürgens - Schenk mir noch eine Stunde
TTITLE8=Howard Carpendale - Wem
TTITLE9=Johnny Logan - Was ist schon ein Jahr
TTITLE10=Marco Bakker - Sharazan
TTITLE11=Peter Alexander - Irgendwann war ein Anfang
TTITLE12=Peter Horton - Wenn ich an Liebe denk
TTITLE13=Freddy Quinn - Der Groschen fällt manchmal zu spät
TTITLE14=Rex Gildo - Wenn ich je deine Liebe verlier
TTITLE15=Milva - Du hast es gut
TTITLE16=Peter Cornelius - Du entschuldige, i kenn di
TTITLE17=Volker Lechtenbrink - Ich mag
EXTD=
EXTT0=
EXTT1=
EXTT2=
EXTT3=
EXTT4=
EXTT5=
EXTT6=
EXTT7=
EXTT8=
EXTT9=
EXTT10=
EXTT11=
EXTT12=
EXTT13=
EXTT14=
EXTT15=
EXTT16=
EXTT17=
PLAYORDER=
